<?xml version="1.0" encoding="utf-8"?>
<!-- Generator: Adobe Illustrator 23.0.2, SVG Export Plug-In . SVG Version: 6.00 Build 0)  -->
<svg version="1.1" id="Layer_1_1_" xmlns="http://www.w3.org/2000/svg" xmlns:xlink="http://www.w3.org/1999/xlink" x="0px" y="0px"
	 viewBox="0 0 64 64" style="enable-background:new 0 0 64 64;" xml:space="preserve">
<style type="text/css">
	.st0{fill:#CB356B;}
</style>
<g>
	<g>
		<rect x="28" y="7" class="st0" width="8" height="2"/>
	</g>
	<g>
		<rect x="22" y="33" class="st0" width="20" height="2"/>
	</g>
	<g>
		<rect x="22" y="53" class="st0" width="20" height="2"/>
	</g>
	<g>
		<path class="st0" d="M40,63H24c-1.7,0-3-1.3-3-3V30c0-3.2,2.1-6.5,6-6.9V3c0-1.1,0.9-2,2-2h6c1.1,0,2,0.9,2,2v20.1
			c3.9,0.5,6,3.7,6,6.9v30C43,61.7,41.7,63,40,63z M28,25c-3.4,0-5,2.6-5,5v30c0,0.6,0.4,1,1,1h16c0.6,0,1-0.4,1-1V30
			c0-2.4-1.6-5-5-5h-1V3h-6v22H28z"/>
	</g>
	<g>
		<path class="st0" d="M26,40h-2V30c0-2,1.4-4,4-4v2c-1.5,0-2,1.1-2,2V40z"/>
	</g>
	<g>
		<rect x="31" y="49" class="st0" width="2" height="2"/>
	</g>
	<g>
		<rect x="35" y="49" class="st0" width="2" height="2"/>
	</g>
	<g>
		<rect x="27" y="49" class="st0" width="2" height="2"/>
	</g>
</g>
</svg>
