<?xml version="1.0" encoding="utf-8"?>
<!-- Generator: Adobe Illustrator 23.0.2, SVG Export Plug-In . SVG Version: 6.00 Build 0)  -->
<svg version="1.1" id="Layer_1" xmlns="http://www.w3.org/2000/svg" xmlns:xlink="http://www.w3.org/1999/xlink" x="0px" y="0px"
	 viewBox="0 0 512 512" style="enable-background:new 0 0 512 512;" xml:space="preserve">
<style type="text/css">
	.st0{fill:#FF5E62;}
</style>
<g>
	<path class="st0" d="M85,497c-3-2.8-4-6.1-4-10.2c0.1-152.5,0.1-304.9,0.1-457.4c0-0.8,0-1.7,0-2.5c-0.1-3.9,1.3-7,5-8.4
		c3.6-1.4,6.8-0.2,9.5,2.5c9.8,9.7,19.7,19.4,29.6,29.1c1.2,1.1,2.4,2.2,4.7,4.4C142,41.8,154,29.4,166,17c2,0,4,0,6,0
		c12,12.4,23.9,24.7,37,38.3c13-13.5,25-25.9,37-38.3c2,0,4,0,6,0c12,12.4,23.9,24.7,37,38.3c13-13.5,25-25.9,37-38.3c2,0,4,0,6,0
		c12,12.4,24,24.8,36.1,37.3c2.3-2.1,3.6-3.1,4.7-4.3c9.3-9.1,18.6-18.1,27.8-27.3c3.2-3.2,6.4-6.3,11.3-4.3c5,2,5,6.4,5,10.9
		c0,55.5,0,111,0,166.5c0,96.8,0,193.6,0.1,290.5c0,4.3-0.8,7.8-4,10.7c-2.7,0-5.3,0-8,0c-12.4-11.7-24.8-23.5-38-36
		c-11.2,11.5-23.1,23.7-35,36c-2,0-4,0-6,0c-12-12.4-23.9-24.8-37-38.2C276,472.3,264,484.6,252,497c-2,0-4,0-6,0
		c-11.9-12.4-23.9-24.8-36.3-37.6c-12.7,13.3-24.2,25.5-35.7,37.6c-2.7,0-5.3,0-8,0c-12.3-12.1-24.5-24.3-35.6-35.3
		c-12.7,12-25,23.6-37.4,35.3C90.3,497,87.7,497,85,497z M98.8,44.7c-0.5,0.5-1,0.9-1.4,1.4c0,141,0,282,0,422.2
		c7.8-7.4,15.8-14.9,23.7-22.5c6.4-6.3,10-6.2,16.3,0.2c10.6,10.8,21.4,21.4,32.3,32.4c10.9-11.2,21.5-22.3,32.1-33.3
		c5.1-5.3,9.5-5.3,14.5-0.2c6,6.1,12,12.1,17.9,18.1c4.8,4.8,9.5,9.7,14.5,14.7c1.7-1.5,2.9-2.6,4-3.7c9.7-9.7,19.3-19.3,29-29
		c5.4-5.4,9.6-5.2,14.9,0.3c6.6,6.8,13.4,13.4,20,20.3c3.9,4,7.6,8.3,11.5,12.7c2.2-2.1,3.4-3.1,4.6-4.3c9.7-9.7,19.3-19.3,29-29
		c5.4-5.3,9.6-5.1,14.9,0.4c5.7,6,11.6,11.9,17.4,18c2,2.1,3.9,4.3,5.8,6.5c0.3-0.3,0.6-0.6,0.9-0.9c0-141,0-282,0-424
		c-8.7,8.6-16.7,16.5-24.8,24.4c-5.2,5.1-8.9,5.1-14.1-0.1c-9.9-9.9-19.8-19.8-29.7-29.7c-1-1-2.2-1.9-3.5-3
		c-10.8,10.8-21.2,21.3-31.7,31.8c-6.4,6.4-9.6,6.4-15.9,0.1c-9.5-9.5-19.1-19.1-28.6-28.6c-1.1-1.1-2.3-2.1-3.7-3.4
		c-11.3,11.3-22,22.2-32.9,33c-4.9,4.9-8.8,4.9-13.8,0c-4.9-4.8-9.7-9.6-14.5-14.5c-6-6.1-12-12.3-18.2-18.7
		c-1.8,1.7-3.1,2.8-4.2,3.9c-9.6,9.5-19.1,19.1-28.6,28.6c-5.8,5.8-9.3,5.9-15.2-0.1C113.7,60.7,106.3,52.7,98.8,44.7z"/>
	<path class="st0" d="M313.1,384.4c1.9-6.1-1.6-9.1-8.2-12.2c-13-6.2-20.7-17-21.9-31.7c-0.5-6,2.4-9.7,7.2-10
		c4.8-0.3,8.4,3.1,8.5,8.9c0.2,13.8,11.8,25,30.2,20c10.5-2.9,15.9-13.3,14.1-25.5c-1.6-10.8-9.9-17.6-21.9-17.9
		c-17.2-0.5-32.8-12.7-37.1-29.1c-4.8-18.2,5.7-37.7,24.6-44.8c3.7-1.4,4.8-3.1,4.5-6.8c-0.3-3.5-0.2-7,0-10.5
		c0.2-4.5,3.4-7.7,7.6-7.8c4.3-0.2,7.9,3.1,8.2,7.7c0.2,3.8,0.3,7.7,0,11.5c-0.3,3.2,0.9,4.5,3.9,5.6c13.6,5.2,22.2,14.9,25.6,29.1
		c0.5,2.1,0.7,4.3,0.6,6.4c0,4.8-3.1,8.2-7.5,8.4c-4,0.2-7.5-2.8-8.2-7.2c-0.3-2.1-0.2-4.4-0.7-6.5c-2.5-11.5-11.7-17.3-25.4-16.2
		c-10.2,0.8-17.7,8.9-18.4,19.6c-0.9,15,7.2,24.1,22.2,24.6c18.4,0.7,34.6,14.8,37.7,32.8c2.8,16.6-8,34.6-25.1,41
		c-3.8,1.4-5.1,3.2-4.8,7.1c0.3,3.8,0.2,7.7,0,11.5c-0.2,5-3.6,8.5-8.1,8.3c-4.3-0.1-7.5-3.4-7.7-8.2
		C313,390.4,313.1,388,313.1,384.4z"/>
	<path class="st0" d="M230.3,144.9c-26.3,0-52.6,0-79,0c-6.8,0-10.7-4-9.4-9.7c1.1-5,4.8-6.2,9.5-6.2c32.3,0,64.6,0,96.9,0
		c20.3,0,40.6,0,61,0c4.5,0,7.9,1.6,9.2,6c1.6,5.3-2.7,9.9-9.3,9.9c-23.2,0-46.3,0-69.5,0C236.7,144.9,233.5,144.9,230.3,144.9z"/>
	<path class="st0" d="M189.5,208.9c-12.7,0-25.3,0-38,0c-6.4,0-9.8-2.9-9.8-8.1c0.1-5,3.4-7.8,9.5-7.8c25.6,0,51.3,0,76.9,0
		c6.4,0,9.9,2.9,9.8,8c-0.1,4.9-3.5,7.8-9.5,7.8C215.5,209,202.5,208.9,189.5,208.9z"/>
	<path class="st0" d="M189.7,272.9c-12.7,0-25.3,0-38,0c-6.5,0-9.9-2.8-10-7.9c0-5.1,3.4-8,9.8-8c25.5,0,51,0,76.4,0
		c6.5,0,9.9,2.7,10,7.8c0,5.1-3.4,8-9.9,8C215.3,272.9,202.5,272.9,189.7,272.9z"/>
	<path class="st0" d="M179.9,336.9c-9.6,0-19.3,0.1-28.9,0c-5.9,0-9.3-3.1-9.2-8.1c0.1-4.8,3.4-7.7,9-7.7c19.4-0.1,38.9-0.1,58.3,0
		c5.4,0,8.9,3.4,8.8,8.1c-0.1,4.5-3.5,7.7-8.6,7.7C199.5,337,189.7,336.9,179.9,336.9z"/>
</g>
</svg>
