<?xml version="1.0" encoding="utf-8"?>
<!-- Generator: Adobe Illustrator 23.0.2, SVG Export Plug-In . SVG Version: 6.00 Build 0)  -->
<svg version="1.1" id="Layer_1" xmlns="http://www.w3.org/2000/svg" xmlns:xlink="http://www.w3.org/1999/xlink" x="0px" y="0px"
	 viewBox="0 0 3500 1500" style="enable-background:new 0 0 3500 1500;" xml:space="preserve">
<style type="text/css">
	.st0{fill-rule:evenodd;clip-rule:evenodd;fill:none;stroke:#000000;stroke-width:4;stroke-miterlimit:10;}
</style>
<g>
	<g>
		<path class="st0" d="M0,1083.1c30.9,0,61.8,0,95,0c-4-10.5-7.5-19.7-11.4-30.1c-4,3.4-6.9,5.9-10.5,8.9c-4.3-5.5-8.6-11-13.3-17.1
			c-6.3,4.6-12,8.7-18,13.2c-4.6-11.4-9.9-22-13-33.2c-2.8-10.2,11.4-23.5,27.2-24c11.3-0.4,18.2-5.2,24.7-13.2
			C90.9,975,99,973.2,114.7,979c-1.8,13.3-1.8,13.3,16.3,23c-6.2-22.3-11.9-43.3-18.5-67c-9.4,13.9-17.4,25.7-26.6,39.2
			c-6-16-11.4-30.3-17.4-46.3c-15.9,7.7-30.7,14.8-47.6,22.9c3.5-19.5,6.6-37.1,9.8-55.3c-7-2.6-13.1-4.8-19.3-7.1
			c11.2-31.5,39.2-44.9,71.6-33.3c10.3,3.7,15.3,3.2,21.4-6.5c21.4-33.9,47.1-35.3,85.7-17c-5.3,4.7-10.2,9-16.1,14.3
			c11.9,14,23.6,27.8,37.8,44.6c-18.9,2.2-34.8,4-51.5,6c1.5,15.7,3,30.9,4.8,48.5c-9.7-4.8-17.6-8.6-28.3-13.8
			c5.4,19.4,10.1,36.3,14.9,53.2c1.8,6.5,3.8,12.9,5.9,19.3c2.2,6.8,1.7,15.6,14,12.9c11.3-2.5,19.4-5.9,18.7-19.5
			c-1-20.6-1.7-41.1-1.8-61.7c-0.1-9.7,1.3-19.4,2-30.5c5.2,0,9.6-0.3,14,0c11.1,0.8,21,0.7,19.6-15.2c-0.1-1.8,6.1-5.7,9.5-5.9
			c13-0.7,26-0.6,39-0.2c11,0.4,17.7-4.7,21.7-14.5c17-41.4,34.4-82.6,51.1-124.2c8.8-21.9,5.9-41.3-12.9-58.2
			c-19.8-17.8-28-40.9-24.1-67.8c1.4-9.7,1.7-19.6,3.1-29.3c3.3-22.7,3.4-22.7,21.2-41.3c0,11.9,1,23.9-0.2,35.7
			c-3,30.2,5.1,56.7,24.2,79.9c9.9,12,23.7,13.5,37.9,11.9c2.6-0.3,5.8-4.6,6.7-7.7c2.6-8.5,3.5-17.6,6.3-26
			c3-9.4,8.2-17.2,20.2-15.4c11.5,1.7,17.4,8.5,16.9,20c-0.2,6.2-1.4,12.4-2.8,18.4c-2.5,10.6,0.6,17.1,11.8,19.8
			c24.1,6,31.2,14.5,33.8,39.8c0.8,7.6,1.8,15.2,1.6,22.7c-0.4,17,5.7,31.5,15.4,44.9c2.5,3.4,4.6,7.1,5.1,12.3
			c-3.3-1.8-6.6-3.5-9.9-5.3c-7.5,6.5,7.4,45.7,22.7,60.2c-5.4-1.7-10.8-3.3-16.6-5.1c-3,4.8-5.1,10.1-8.8,13.6
			c-2.9,2.8-7.9,4.8-11.7,4.5c-2.1-0.1-4.8-5.5-5.6-8.8c-1.6-6.9-1.2-14.4-3.3-21.1c-2.9-9-7.4-17.5-11.3-26.2
			c-1.4,0.5-2.7,1.1-4.1,1.6c-0.3,1.6-1,3.3-0.9,4.9c1,41.6,1.9,83.1,3.2,124.7c0.4,14.3,1.1,28.6,2.6,42.7
			c0.7,7.1-0.1,16.7,13.5,16.9c0-41.7,0-82.6,0-124.3c12.9,0,24.1,0.6,35.2-0.1c12.7-0.8,16.2,5,16,16.9
			c-0.6,28.7-0.3,57.4-0.1,86.1c0,5.1,1.8,10.2,2.8,15.2c1.5-0.1,3-0.2,4.5-0.3c0.6-5,1.6-10,1.6-15c0.2-24.2-0.7-48.4,0.3-72.6
			c0.8-19.7,1.5-38.5-17.1-51.3c-0.5-0.3-0.3-1.7-0.4-2.6c16,11.5,33.4,4.7,52,5.1c-2.8-5.5-4.9-9.5-8.3-16.1
			c10.5,6.8,18.5,11.9,28.3,18.2c0.5-4.9,0.9-7.8,1-10.6c0.1-52.1,0.1-104.1,0-156.2c-0.1-25.6-0.2-25.6,24.8-29.7
			c-0.2-8.9-0.5-17.9,11.1-21.6c2.3-0.7,3.2-7.8,3.8-12c1.3-8.2,1.9-16.6,5.2-24.8c0.4,4.6,1,9.1,1,13.7c0,11.1,3.3,19.4,10.2,29.5
			c9,13.4,11.9,32.8,12.3,49.8c1.4,55.6,0.5,111.2,0.5,166.8c0,3,0,6.1,0,10.2c38.8,0,76.8,0,115.4,0c1.6,6.3,3.1,11.8,4.9,18.6
			c16.8,0,33.7,0,51.8,0c0,13.2,0,25.1,0,37.5c15.8,0,30.5,0,46.8,0c0-18.3,0-36.5,0-55.9c15.9,0,30.1-0.3,44.4,0.1
			c8.4,0.2,12.5-2.9,12.4-11.7c-0.2-12.8-2.2-26,9.5-36.1c1.9-1.6,0.9-6.8,0.9-10.3c0.1-30.5,0-60.9,0-92.6
			c17.7,0.2,20.4-12,19.4-26.3c18.4,0,35.6,0,53.6,0c-0.9,12.5,1.2,22.2,14.8,25.5c2.2,0.5,3.9,7.3,4,11.2c0.4,24.7,0.2,49.4,0.2,74
			c0,4-1.1,9,0.8,11.9c15.4,24.3,8.9,51.3,10.2,77.4c0.1,1.8,0.1,3.6,0.4,5.4c0.1,0.8,0.8,1.4,3.2,5.4c8.8-10,17-19.3,26-29.4
			c5.5,10.3,14.4,14.5,23.1,8.3c7.2-5.2,15.6-14.1,16.1-21.9c2-28.4,1.5-57.1,0.7-85.7c-0.5-16.8,2.1-22.6,16.1-23.4
			c0-19.9,0.2-40,0-60c-0.3-30-0.9-60-1.3-90c0-2.6-0.1-6.2,1.5-7.7c20.7-19.5,10.6-44.7,12.5-67.5c1.3-15.6-0.4-31.4,0.3-47.1
			c0.2-5.3,2.4-13.4,6.1-15.2c13.4-6.5,12.5-18.1,13.3-29.5c3.6-47.7,7.3-95.4,11.1-143c0.1-1.6,1.2-3.1,4.5-4.7
			c2.1,18.6,4.4,37.2,6.1,55.8c3,32.5,5.6,64.9,8.6,97.4c0.4,3.9,1.1,8.6,3.4,11.4c21.4,25.4,13.8,56.3,16.3,85.1
			c0.8,9.7-0.6,19.6-1.3,29.4c-1,12.9,1.6,22,16.7,25.8c10.5,2.6,13.2,13.1,13.1,23.9c-0.3,39.9,0.3,79.9-0.4,119.8
			c-0.2,11.6,1.3,19.6,16.1,17.9c0,60.3,0,119.8,0,180.9c20.3,0,39.7,0,60.4,0c0-24.2,0-49.1,0-75.8c25.6,0,50.3-1.6,74.5,0.8
			c10,1,19.5,9.6,19,23.9c-0.8,22.7-0.2,45.5-0.2,68.8c7.4,0,11.7,0,17.2,0c0-35.4,0-70.2,0-105.1c0-16.6,0.7-33.2-0.1-49.8
			c-0.6-12.2,0.6-21.6,13.6-20.3c5.7-12.5,10.8-23.5,15.8-34.6c1.5,0.3,3,0.5,4.5,0.8c0.4,8,1.3,16,1,24c-0.4,8,4.1,9.8,10.5,10.8
			c6.5,1,9.3-1.2,11.3-7.8c3.1-10.5,7.9-20.6,12.1-31.2c9.7,12.7-7.2,38.3,22.4,40.6c0,22.5,0,44.7,0,68.5c28.1,0,54.7,0,83.3,0
			c0,14.6,0,27.7,0,42.2c12.3-4.3,19.4-8.5,12.1-20.9c-1.7-3-3.1-9.2-1.6-10.6c11.8-10.9,4.9-18.5-4.4-26.2
			c10.9-9.7,14.4-19.3,0.5-29.5c10.5-9.9,13.2-19.9,0.1-29.9c10.3-10.1,13.1-20,0-29.6c9.3-10.2,14.4-20.2-1-30.7
			c13.7-9.3,14.1-19,2.1-28c10.2-17.8,10.2-17.8-0.4-30.5c6-9,18-19.2-0.2-28.6c6.7-10.8,15.6-21-0.6-30.4c9.3-10.7,13-21-0.3-30.8
			c12-9.6,13.3-19,0.9-28.8c8.2-10.3,14.4-20.8,0.1-29.7c5.3-7.9,10-15.1,15.4-23.1c-6-2.7-10.3-4.7-13.4-6.1
			c0.4-6.5,0.7-12.1,1.1-17.7c5.1-5.2,8.3-10.8,0.6-19.4c-9.1-10.2-2-15.9,6.9-18.6c16.3-4.8,33-8.2,49.6-12.2
			c4.2-1,8.4-2.2,16.7-4.4c-36.3-19.3-69.4-36.9-102.5-54.5c0.3-1,0.6-2,0.8-3c22.1,0,44.2,0,67.2,0c1-8.1,1.8-15,2.6-22.5
			c63.1,0,125.8,0,189.2,0c1.2,6.4,2.4,12.8,4,20.8c23.5,0,46.9,0,70.4,0c0.2,1,0.5,2,0.7,3c-33.5,18.2-67,36.4-103.8,56.4
			c18,4.4,32.8,7.9,47.5,11.5c5.2,1.3,10.5,2.4,15.5,4.2c9.8,3.5,15.5,8.5,8.7,20c-5.5,9.2-1.1,27.3,7,34.3
			c-5.6,2.8-11.1,5.5-17.2,8.6c2.1,3.8,4,7.3,6.1,10.7c2.1,3.4,4.6,6.6,7.3,10.5c-7.6,9.3-16.2,19,1.4,27.7
			c-8.7,11-15.4,21.5-1.2,31.3c-12.2,14.8-12.2,15.3-0.2,30.7c-7.5,9.4-15.3,19.3,1,29c-7.6,9.7-15.9,19.5-0.4,29.8
			c-10,10.3-12.2,20.5,0.3,31c-10.7,9.4-11.9,19.1,0.1,29.8c-12.8,8.9-13.5,18.5-0.2,28c-6.1,9.8-19.4,19.5-0.1,29.8
			c-6.5,10.2-17.1,20.6,1.3,30c-14.1,10.8-14,21.2,0.1,31c-12.4,9.5-14.7,18.6-2.5,29.2c3,2.6,3.4,8.9,3.6,13.5
			c0.5,11.5,0.2,23.1,0.2,35.3c9.2,0,17.1,0,26.7,0c0-51.3,0-103,0-155.7c9.9,0,18.2,0,28.1,0c0,12.5,0,25.3,0,39.5
			c18.8,0.9,36,1.7,54.1,2.5c1,15,2.1,29.9,3.1,44.9c1.8,0,3.5,0,5.3,0c10.5-14.4,3.2-32.1,7.1-48.7c7.9,0,15.8,0,23.8,0
			c5.1,21.7,20.8,35.4,47.7,39.6c0.9-9.1,2.2-18.1,2.4-27.2c0.4-13.4,0.4-26.9,0-40.4c-0.3-10.8-0.5-20.9,16.4-17.5
			c1.7-26.3,3.3-51,4.9-75.7c1.1-0.1,2.1-0.2,3.2-0.2c0.6,2.6,1.8,5.1,1.8,7.7c0.2,18.4,0.2,36.8,0.4,55.1
			c0.1,7.6,2.3,13.5,11.3,13.2c8.8-0.3,11.1-6.4,11.1-13.8c0.1-16.4,0-32.8,0-49.2c1.1-0.3,2.3-0.6,3.4-0.8c1.1,3.7,3,7.3,3.3,11.1
			c0.8,9.8,1.1,19.7,1.2,29.6c0.1,9.8-0.3,18.7,8.1,27c4.4,4.3,4.7,14.1,4.9,21.4c0.6,24.8,0.2,49.7,0.2,75.1c18.1,0,32.3,0,48,0
			c0-18.5,0-36.6,0-53.3c22.5-6.9,43.1-13.2,65.8-20.1c0,18.6-0.3,35,0.1,51.5c0.7,30,1.7,60,3.1,89.9c0.2,4,3.7,7.8,5.7,11.6
			c2.3-3.6,6.5-7.1,6.7-10.9c2.4-42.4,4.5-84.8,5.9-127.3c1.2-36.3,3-72.6,1.5-108.8c-2.8-66.5-7.6-132.9-12.4-199.3
			c-0.7-9.4,4.3-11.6,10.1-12.4c18-2.8,36.2-4.5,54.4-6.6c2.2-0.3,4.4-0.3,7.5-0.6c2.1-8.1,4.3-16.2,5.8-21.9
			c22,11.4,45.7,3.1,68.2,5.1c3,0.3,6.5-4.5,10.2-7.2c1.1,24.8,20.8,26.5,40.7,28.3c11.1,1,22.1,2.6,31.8,3.7
			c-4.2,24.3-8.5,47.8-12.2,71.4c-1.3,8.8-1.3,17.8-1.3,26.8c-0.1,63.7-0.2,127.4,0.1,191.1c0.2,36.2,1.1,72.5,1.9,108.7
			c0.1,4.4,0.9,8.7,1.4,13.8c6.9,0,13,0,20.5,0c0-24.3,0-48.7,0-73.5c6.7-1.7,12.3-3.1,18.8-4.7c0-7.9,0-15.9,0-25.3
			c43.4,0,85.8,0,129.9,0c0-19.7,0-37.9,0-56.1c0-19.3,0.1-38.6-0.1-57.9c-0.2-15.9-0.3-15.9-18.2-20.1c0-17.4,0.2-35.6,0-53.7
			c-0.2-19.3-0.9-38.5-1.1-57.8c-0.2-20.4,2.1-22.4,22.2-21.5c3.5,0.2,7.1,0,12.3,0c0-32.2,0-63.8,0-97c29.6,4.2,30.7-25.6,49-37.1
			c7,9.1,13.8,19,21.7,27.9c3.4,3.7,8.9,6.6,13.9,7.5c8.2,1.4,12,5.1,12,13.2c-0.1,21.5,0.3,43.1-0.5,64.6
			c-0.6,17.3-0.1,18.9,16.7,21.9c5.1,0.9,10.5,0.6,17,0.9c0,26.4,0,52.8,0,79.2c0,13.9-0.2,27.8,0.1,41.7c0.1,7-0.3,12.6-9.4,12.5
			c-7.7,0-9.2,4.9-9.2,11.7c0.2,82.6,0.1,165.1,0.1,247.7c0,9.2,3.5,12.5,13.1,11.9c14.7-1,29.5-0.2,45.6-0.2
			c0.5-5.3,1.3-10,1.3-14.8c0.1-146.7,0.1-293.4,0.1-440.1c0-26.8-0.6-53.5,0.2-80.3c0.1-4.4,5.7-8.8,8.9-13.1
			c3.5-4.7,10.3-9.7,9.8-13.8c-0.5-4.1-7.8-8.6-13-10.6c-4.7-1.8-10.5-0.4-16.4-0.4c-1.8-8.9-6.6-17.5,6.2-21.1
			c0.4-0.1,1.2-0.4,1.2-0.4c-4.2-19.8,25.5-22,20.5-43c20.5,0,40.1,0,61.2,0c0-17.7,0-34,0-50.7c8.3-1.4,15.2-2.6,22.1-3.9
			c1-6.8,2.1-13.5,3.1-20.2c0.7,0,1.4,0,2.1,0c1.2,6.8,2.3,13.6,3.7,21.4c8.4-2.4,20.2,5.4,23.4-14.2c3.8,20.2,16.9,13.9,25.9,13.6
			c14.1-0.4,3-15.1,9.3-20.8c0.7,0.5,1.7,0.9,1.7,1.3c1.5,19.4,1.5,19.5,21.1,19.5c20.5,0.1,41.1,0,62.3,0c0.9-5.1,1.6-9.3,2.3-13.6
			c1.9,17.6,16.9,13.9,29,16.3c0,16.6,0,32.5,0,50.1c16.4,0,31.6,0.3,46.7-0.1c9.4-0.2,13.4,3.7,17.6,12.5
			c5.8,12,15.9,21.9,23.5,33.1c2.4,3.6,3.5,8.7,3.3,13c-0.1,2.3-4,5.4-6.8,6.4c-4.5,1.6-10,0.8-14.3,2.7c-4.5,2-9.9,5.4-11.4,9.5
			c-2.5,6.8,1.1,11.2,9.3,12.5c11,1.7,11.4,11.1,11.4,19.9c0,39.5,0,78.9,0,118.4c0,153.4,0.1,306.9,0.1,460.3c0,4.4-2.2,9.2-1,13.1
			c1.1,3.6,5.3,6.3,8.1,9.4c2.3-3.1,6.4-6,6.7-9.2c0.9-10.5,0.3-21.1,0.3-32.9c4.7-1.3,10.6-2.8,17.3-4.6c0-8.3,0-16.2,0-25.6
			c13.6,0,26.1-1.2,38.2,0.7c4.1,0.6,9.5,8.7,10.1,13.9c1.5,12.7,0.5,25.6,0.5,38.5c1.7,0.3,3.4,0.6,5,0.9
			c10.4-35.3,20.9-70.6,32.2-108.9c-10.2,3.6-18.2,6.5-28,10c1.7-16.3,3.3-31.1,5.2-48c-14.8-1.4-29.7-2.9-46.2-4.4
			c4.2-19.7,18.2-31.6,33.8-43.1c-5.1-5.4-9.6-10.1-14.1-14.9c30-23.4,61.3-19.5,89.6,25.1c10.3-2.8,20.4-6.1,30.8-8.3
			c17.7-3.6,43.5,10.8,50.9,27.9c3.2,7.5,0.1,11.2-7.2,14.1c-18.7,7.2-18.2,7.2-8.4,25c4.6,8.4,7.2,18,12.2,30.8
			c-21-2.9-33.3-17.6-51.3-22.5c-4.7,14.7-9.5,29.6-14.5,45.3c-13-7.7-12.3-18.7-10.6-29.7c-19.8-2.8-32.7,8.5-34.4,30.2
			c-0.7,9.1-0.1,18.3-0.1,30.1c7.9-4.2,13.7-7,19.3-10.2c19.9-11.6,28.7-8.3,35.6,13.4c1.2,3.7,2.6,7.3,3.9,11
			c30.1-17.2,33.5-16.4,42.1,7.9c-3.3,6.6-6.6,11.4-8.1,16.7c-1.6,5.8-1.6,12.1-2.4,19.7c-7.2-5.4-13.5-10-20.2-15
			c-5.2,6.2-9.7,11.6-14.9,17.8c-2.3-3.3-4.4-6.2-7.8-11c-3.3,7.1-6,12.5-8.5,18c-2.5,5.6-4.8,11.4-7.8,18.7c38.1,0,74.5,0,111,0"/>
		<path class="st0" d="M522,859.2c0.1,0.9-0.1,2.2,0.4,2.6c18.6,12.9,17.9,31.7,17.1,51.3c-1,24.2-0.2,48.4-0.3,72.6
			c0,5-1.1,10-1.6,15c-1.5,0.1-3,0.2-4.5,0.3c-1-5.1-2.7-10.2-2.8-15.2c-0.3-28.7-0.5-57.4,0.1-86.1c0.2-11.8-3.3-17.7-16-16.9
			c-11.1,0.7-22.3,0.1-35.2,0.1c0,41.7,0,82.6,0,124.3c-13.6-0.2-12.8-9.8-13.5-16.9c-1.4-14.2-2.1-28.5-2.6-42.7
			c-1.2-41.6-2.2-83.1-3.2-124.7c0-1.6,0.6-3.3,0.9-4.9c1.4-0.5,2.7-1.1,4.1-1.6c3.8,8.7,8.4,17.2,11.3,26.2
			c2.2,6.7,1.7,14.2,3.3,21.1c0.8,3.4,3.5,8.7,5.6,8.8c3.9,0.3,8.8-1.7,11.7-4.5c3.7-3.6,5.8-8.8,8.8-13.6
			c5.8,1.8,11.2,3.5,16.6,5.1C522.3,859.6,522,859.2,522,859.2z"/>
	</g>
</g>
</svg>
