<?xml version="1.0" encoding="utf-8"?>
<!-- Generator: Adobe Illustrator 23.0.2, SVG Export Plug-In . SVG Version: 6.00 Build 0)  -->
<svg version="1.1" id="Layer_1" xmlns="http://www.w3.org/2000/svg" xmlns:xlink="http://www.w3.org/1999/xlink" x="0px" y="0px"
	 viewBox="0 0 512 512" style="enable-background:new 0 0 512 512;" xml:space="preserve">
<style type="text/css">
	.st0{fill:#20E3B2;}
</style>
<g>
	<path class="st0" d="M150.3,276.5c-7.7,3.7-12.5,9.3-12.5,16.9c-0.1,21.7-1.7,43.5,1.3,65.1c6.7,49,47.9,91.6,96.6,99.8
		c2.9,0.5,5.9,0.9,8.8,1.4c4.6,0.8,7.5,4.6,6.9,8.9c-0.6,4.3-4.5,7.2-9.1,6.7c-55.9-5.6-104.6-49.1-116.8-104.9
		c-2.3-10.4-3.1-21.2-3.6-31.9c-0.6-13.7-0.2-27.4-0.1-41.2c0-18,9.2-30.8,26.3-36.7c2.2-0.7,2.2-2,2.2-3.7c0-14.3,0-28.6,0-43
		c0-30.2-0.1-60.4,0-90.6c0.1-17.8,11.3-32.2,27.9-36.2c22.4-5.4,44.4,11.5,44.6,34.6c0.2,22.4,0.1,44.9,0.1,67.3c0,1.3,0,2.6,0,4.5
		c10-6.2,20.3-8,31.2-4.7c11,3.3,18.4,10.6,23.3,21.1c9.7-7.6,20.4-10.2,32.1-7.2c11.7,2.9,19.8,10.5,24.9,21.6
		c7-5.3,14.5-8.3,23-8.3c19.7,0,36.3,15.5,36.5,35.2c0.3,30.9,0.7,61.9-0.1,92.7c-1.7,65.4-50.2,120.1-114.8,130.6
		c-1.6,0.3-3.3,0.5-5,0.7c-4.9,0.6-8.9-2.1-9.6-6.5c-0.7-4.6,2.2-8.5,7.3-9.1c16.2-2.1,31.5-6.7,45.5-15
		c35.5-21.3,55.7-52.6,60.3-93.8c0.6-5,0.6-10,0.6-15c0.1-27.8,0.1-55.6,0-83.4c0-9.8-6.7-17.9-16.3-20.1
		c-8.9-2.1-18.4,2.2-22.5,10.7c-1.5,3.2-2.1,7-2.5,10.7c-0.4,4.3,0,8.6-0.1,12.9c-0.1,5-3.4,8.4-7.9,8.4c-4.4-0.1-7.6-3.3-7.7-8.2
		c-0.1-9.2,0.1-18.4-0.1-27.6c-0.2-10.6-5.9-18.3-15.2-20.9c-12.6-3.5-25.5,5.7-25.9,18.9c-0.3,8.9-0.1,17.9-0.1,26.9
		c0,1.1,0.1,2.2,0,3.2c-0.4,4.7-3.9,7.9-8.2,7.8c-4.2-0.2-7.4-3.5-7.4-8.1c-0.1-6.8,0-13.6,0-20.4c0-7.4,0.1-14.8,0-22.2
		c-0.2-11.9-9-20.9-20.4-21.1c-11.6-0.2-20.8,8.8-21,20.8c-0.2,13.5-0.1,27-0.1,40.5c0,1.2,0.1,2.4-0.1,3.6
		c-0.4,3.6-3.2,6.4-6.7,6.9c-3.5,0.5-7.1-1.6-8.2-5c-0.6-1.8-0.7-3.8-0.7-5.6c0-46.8,0-93.6,0-140.4c0-12.1-7.8-20.9-19.2-21.8
		c-10.8-0.9-20.9,7.5-21.8,18.3c-0.2,1.7-0.1,3.3-0.1,5c0,65.1,0,130.1,0,195.2c0,1.2,0,2.4,0,3.6c-0.3,5.1-3.4,8.3-8,8.3
		c-4.6-0.1-7.6-3.3-7.6-8.5c-0.1-10.3,0-20.5,0-30.8C150.3,287.8,150.3,282.6,150.3,276.5z"/>
	<path class="st0" d="M219,84.5c0.6-1,1.4-3.2,2.8-4.8c6.2-6.6,12.6-13,19.1-19.3c3.6-3.6,8.2-3.8,11.5-0.7
		c3.4,3.3,3.4,7.9-0.3,11.7c-6.4,6.6-12.9,13.1-19.4,19.6c-2.5,2.5-5.4,3.4-8.8,1.9C220.7,91.7,219.2,89.2,219,84.5z"/>
	<path class="st0" d="M127.3,57.6c0.9,0.5,3,1.1,4.5,2.5c6.7,6.5,13.2,13.1,19.7,19.8c3.4,3.5,3.4,8.3,0.2,11.5
		c-3.2,3.2-7.8,3.1-11.4-0.5c-6.5-6.5-12.9-13-19.4-19.6c-2.6-2.6-3.4-5.7-1.9-9.2C120.4,59.2,122.8,57.7,127.3,57.6z"/>
	<path class="st0" d="M178.8,50.8c0-4.6-0.1-9.3,0-13.9c0.1-5,3.5-8.4,7.9-8.3c4.3,0.1,7.6,3.4,7.6,8.2c0.1,9.3,0.1,18.6,0,27.8
		c-0.1,5.2-3.1,8.4-7.7,8.4c-4.8,0-7.7-3.2-7.8-8.7C178.7,59.9,178.7,55.4,178.8,50.8z"/>
</g>
</svg>
