<?xml version="1.0" encoding="utf-8"?>
<!-- Generator: Adobe Illustrator 23.0.2, SVG Export Plug-In . SVG Version: 6.00 Build 0)  -->
<svg version="1.1" id="Layer_1" xmlns="http://www.w3.org/2000/svg" xmlns:xlink="http://www.w3.org/1999/xlink" x="0px" y="0px"
	 viewBox="0 0 425.2 206.5" style="enable-background:new 0 0 425.2 206.5;" xml:space="preserve">
<style type="text/css">
	.st0{fill:#FCBC00;}
	.st1{fill:#451F10;}
	.st2{font-family:'MyriadPro-Regular';}
	.st3{font-size:56.6415px;}
</style>
<g>
	<polygon class="st0" points="94.2,62.1 94.2,122.7 22,62.1 22,145.9 94.2,206.5 94.2,145.9 166.4,206.5 166.4,122.7 	"/>
	<g>
		<g>
			<g>
				<polygon class="st1" points="228.2,83.7 228.2,107.4 228.1,107.4 210.5,83.7 202.5,83.7 202.5,122.7 211.3,122.7 211.3,99.1 
					211.4,99.1 229,122.7 237,122.7 237,83.7 				"/>
			</g>
			<g>
				<path class="st1" d="M287.2,116.7c-2.5,0-2.9-1.8-2.9-4.7v-11h7.5v-5.7h-7.4v-8.2l-8.4,1.8v6.4H272v5.7h3.8v10.8
					c0,4.6,0.1,6.9,1.9,9c1.5,1.8,4.1,2.5,7.2,2.5c2.6,0,5.1-0.5,7.2-1.5l1.1-0.5l-1.1-5.8C290.8,116.1,288.8,116.7,287.2,116.7z"/>
			</g>
			<path class="st1" d="M300.4,92.1c-2.1,0-4.6-1.5-4.6-4.2c0-2.7,2.3-4.3,4.6-4.3c2.3,0,4.5,1.6,4.5,4.3
				C304.9,90.5,302.6,92.1,300.4,92.1z"/>
			<g>
				<rect x="296.3" y="95.3" class="st1" width="8.4" height="27.4"/>
			</g>
			<g>
				<path class="st1" d="M357.8,94.5c-3.3,0-6.4,1.1-9,3.1l-0.5-2.4h-7.4v27.4h8.4v-18.4c1.6-1.4,3.9-2.2,5.7-2.2
					c2.6,0,3.2,1.6,3.2,3.9v16.6h8.4v-18.1C366.6,98.4,364,94.5,357.8,94.5z"/>
			</g>
			<g>
				<polygon class="st1" points="403.8,84 403.8,122.7 412.2,122.7 412.2,82.2 				"/>
			</g>
			<path class="st1" d="M269.6,117c-0.6,0-0.9-0.4-0.9-0.9V95.3h-7.3l-0.6,2.4c-1.2-1.7-3.7-3.1-6.9-3.1c-6.2,0-12.4,5.1-12.4,15
				c0,7.5,3.8,13.9,11.9,13.9c2.7,0,6.3-1.6,7.8-3.3h0.1c0.7,1.6,2.1,2.6,5.4,2.6h4.3V117H269.6z M260.4,114.3
				c-0.7,0.8-2.7,2.4-4.7,2.4c-4.3,0-5.2-4.2-5.2-7.6c0-5.2,2.6-7.5,5.3-7.5c1.7,0,3.5,1,4.5,1.9V114.3z"/>
			<path class="st1" d="M398.5,117c-0.6,0-0.8-0.4-0.8-0.9V95.3h-7.3l-0.6,2.4c-1.2-1.7-3.7-3.1-6.9-3.1c-6.2,0-12.4,5.1-12.4,15
				c0,7.5,3.8,13.9,11.9,13.9c2.7,0,6.3-1.6,7.9-3.3h0.1c0.7,1.6,2.1,2.6,5.4,2.6h4.3V117H398.5z M389.2,114.3
				c-0.7,0.8-2.7,2.4-4.7,2.4c-4.3,0-5.2-4.2-5.2-7.6c0-5.2,2.6-7.5,5.3-7.5c1.7,0,3.5,1,4.5,1.9V114.3z"/>
			<path class="st1" d="M323,94.5c-9.1,0-14.3,6.1-14.3,14.4c0,8.4,4.4,14.5,13.9,14.5c9.1,0,14.3-6.1,14.3-14.4
				C336.9,100.7,332.4,94.5,323,94.5z M322.7,116.8c-4.2,0-5.4-3.8-5.4-7.9c0-4.1,1.4-7.7,5.5-7.7c4.1,0,5.3,3.7,5.3,7.8
				C328.2,113.1,326.8,116.8,322.7,116.8z"/>
		</g>
		<g>
			<g>
				<path class="st1" d="M222.3,152L222.3,152c3.9-0.9,6.1-4.3,6.1-8.1c0-6.6-4.9-9.6-14.9-9.6h-11v39h12.9
					c8.1,0,15.9-2.2,15.9-11.5C231.4,156.2,227.6,152.6,222.3,152z M211.3,141.1h2.8c3.4,0,5.5,1.3,5.5,4c0,3.5-1.9,4.7-6.1,4.7
					h-2.1V141.1z M219.4,165.9c-1.2,0.5-2.9,0.6-4.6,0.6h-3.5V156c0.9,0,2.1,0,2.8,0c2.2,0,3.8,0,5.5,0.8c1.6,0.7,2.8,2.3,2.8,4.7
					C222.3,163.7,221.2,165.3,219.4,165.9z"/>
			</g>
			<g>
				<polygon class="st1" points="314.8,157.6 323.3,145.9 314.1,145.9 307.3,156.9 307.2,156.9 307.2,143.9 307.2,132.8 
					298.8,134.6 298.8,173.3 307.2,173.3 307.2,168.6 307.2,160.8 307.3,160.8 314.3,173.3 324.4,173.3 				"/>
			</g>
			<g>
				<path class="st1" d="M284.4,145.2c-3.3,0-6.4,1.1-9,3.1l-0.5-2.4h-7.5v27.4h8.4v-18.4c1.6-1.4,3.9-2.2,5.7-2.2
					c2.6,0,3.2,1.6,3.2,3.9v16.6h8.4v-18.2C293.3,149,290.6,145.2,284.4,145.2z"/>
			</g>
			<path class="st1" d="M262.2,167.6c-0.6,0-0.8-0.4-0.8-0.9v-20.7H254l-0.6,2.4c-1.2-1.7-3.7-3.1-6.9-3.1c-6.2,0-12.4,5.1-12.4,15
				c0,7.5,3.8,13.9,11.9,13.9c2.7,0,6.3-1.6,7.9-3.3h0.1c0.7,1.6,2.1,2.6,5.4,2.6h4.3v-5.7H262.2z M252.9,164.9
				c-0.7,0.8-2.7,2.4-4.7,2.4c-4.3,0-5.2-4.2-5.2-7.6c0-5.2,2.6-7.5,5.3-7.5c1.7,0,3.5,1,4.5,1.9V164.9z"/>
		</g>
	</g>
</g>
<text transform="matrix(1 0 0 1 17.9668 41.1016)" class="st2 st3">Powered By</text>
</svg>
