<?xml version="1.0" encoding="utf-8"?>
<!-- Generator: Adobe Illustrator 23.0.2, SVG Export Plug-In . SVG Version: 6.00 Build 0)  -->
<svg version="1.1" id="Layer_1" xmlns="http://www.w3.org/2000/svg" xmlns:xlink="http://www.w3.org/1999/xlink" x="0px" y="0px"
	 viewBox="0 0 425.2 206.5" style="enable-background:new 0 0 425.2 206.5;" xml:space="preserve">
<style type="text/css">
	.st0{fill:#FCBC00;}
	.st1{fill:#451F10;}
	.st2{fill:#FFFFFF;}
</style>
<g>
	<polygon class="st0" points="94.2,62.1 94.2,122.7 22,62.1 22,145.9 94.2,206.5 94.2,145.9 166.4,206.5 166.4,122.7 	"/>
	<g>
		<g>
			<g>
				<polygon class="st1" points="228.2,83.7 228.2,107.4 228.1,107.4 210.5,83.7 202.5,83.7 202.5,122.7 211.3,122.7 211.3,99.1 
					211.4,99.1 229,122.7 237,122.7 237,83.7 				"/>
			</g>
			<g>
				<path class="st1" d="M287.2,116.7c-2.5,0-2.9-1.8-2.9-4.7v-11h7.5v-5.7h-7.4v-8.2l-8.4,1.8v6.4H272v5.7h3.8v10.8
					c0,4.6,0.1,6.9,1.9,9c1.5,1.8,4.1,2.5,7.2,2.5c2.6,0,5.1-0.5,7.2-1.5l1.1-0.5l-1.1-5.8C290.8,116.1,288.8,116.7,287.2,116.7z"/>
			</g>
			<path class="st1" d="M300.4,92.1c-2.1,0-4.6-1.5-4.6-4.2c0-2.7,2.3-4.3,4.6-4.3c2.3,0,4.5,1.6,4.5,4.3
				C304.9,90.5,302.6,92.1,300.4,92.1z"/>
			<g>
				<rect x="296.3" y="95.3" class="st1" width="8.4" height="27.4"/>
			</g>
			<g>
				<path class="st1" d="M357.8,94.5c-3.3,0-6.4,1.1-9,3.1l-0.5-2.4h-7.4v27.4h8.4v-18.4c1.6-1.4,3.9-2.2,5.7-2.2
					c2.6,0,3.2,1.6,3.2,3.9v16.6h8.4v-18.1C366.6,98.4,364,94.5,357.8,94.5z"/>
			</g>
			<g>
				<polygon class="st1" points="403.8,84 403.8,122.7 412.2,122.7 412.2,82.2 				"/>
			</g>
			<path class="st1" d="M269.6,117c-0.6,0-0.9-0.4-0.9-0.9V95.3h-7.3l-0.6,2.4c-1.2-1.7-3.7-3.1-6.9-3.1c-6.2,0-12.4,5.1-12.4,15
				c0,7.5,3.8,13.9,11.9,13.9c2.7,0,6.3-1.6,7.8-3.3h0.1c0.7,1.6,2.1,2.6,5.4,2.6h4.3V117H269.6z M260.4,114.3
				c-0.7,0.8-2.7,2.4-4.7,2.4c-4.3,0-5.2-4.2-5.2-7.6c0-5.2,2.6-7.5,5.3-7.5c1.7,0,3.5,1,4.5,1.9V114.3z"/>
			<path class="st1" d="M398.5,117c-0.6,0-0.8-0.4-0.8-0.9V95.3h-7.3l-0.6,2.4c-1.2-1.7-3.7-3.1-6.9-3.1c-6.2,0-12.4,5.1-12.4,15
				c0,7.5,3.8,13.9,11.9,13.9c2.7,0,6.3-1.6,7.9-3.3h0.1c0.7,1.6,2.1,2.6,5.4,2.6h4.3V117H398.5z M389.2,114.3
				c-0.7,0.8-2.7,2.4-4.7,2.4c-4.3,0-5.2-4.2-5.2-7.6c0-5.2,2.6-7.5,5.3-7.5c1.7,0,3.5,1,4.5,1.9V114.3z"/>
			<path class="st1" d="M323,94.5c-9.1,0-14.3,6.1-14.3,14.4c0,8.4,4.4,14.5,13.9,14.5c9.1,0,14.3-6.1,14.3-14.4
				C336.9,100.7,332.4,94.5,323,94.5z M322.7,116.8c-4.2,0-5.4-3.8-5.4-7.9c0-4.1,1.4-7.7,5.5-7.7c4.1,0,5.3,3.7,5.3,7.8
				C328.2,113.1,326.8,116.8,322.7,116.8z"/>
		</g>
		<g>
			<g>
				<path class="st1" d="M222.3,152L222.3,152c3.9-0.9,6.1-4.3,6.1-8.1c0-6.6-4.9-9.6-14.9-9.6h-11v39h12.9
					c8.1,0,15.9-2.2,15.9-11.5C231.4,156.2,227.6,152.6,222.3,152z M211.3,141.1h2.8c3.4,0,5.5,1.3,5.5,4c0,3.5-1.9,4.7-6.1,4.7
					h-2.1V141.1z M219.4,165.9c-1.2,0.5-2.9,0.6-4.6,0.6h-3.5V156c0.9,0,2.1,0,2.8,0c2.2,0,3.8,0,5.5,0.8c1.6,0.7,2.8,2.3,2.8,4.7
					C222.3,163.7,221.2,165.3,219.4,165.9z"/>
			</g>
			<g>
				<polygon class="st1" points="314.8,157.6 323.3,145.9 314.1,145.9 307.3,156.9 307.2,156.9 307.2,143.9 307.2,132.8 
					298.8,134.6 298.8,173.3 307.2,173.3 307.2,168.6 307.2,160.8 307.3,160.8 314.3,173.3 324.4,173.3 				"/>
			</g>
			<g>
				<path class="st1" d="M284.4,145.2c-3.3,0-6.4,1.1-9,3.1l-0.5-2.4h-7.5v27.4h8.4v-18.4c1.6-1.4,3.9-2.2,5.7-2.2
					c2.6,0,3.2,1.6,3.2,3.9v16.6h8.4v-18.2C293.3,149,290.6,145.2,284.4,145.2z"/>
			</g>
			<path class="st1" d="M262.2,167.6c-0.6,0-0.8-0.4-0.8-0.9v-20.7H254l-0.6,2.4c-1.2-1.7-3.7-3.1-6.9-3.1c-6.2,0-12.4,5.1-12.4,15
				c0,7.5,3.8,13.9,11.9,13.9c2.7,0,6.3-1.6,7.9-3.3h0.1c0.7,1.6,2.1,2.6,5.4,2.6h4.3v-5.7H262.2z M252.9,164.9
				c-0.7,0.8-2.7,2.4-4.7,2.4c-4.3,0-5.2-4.2-5.2-7.6c0-5.2,2.6-7.5,5.3-7.5c1.7,0,3.5,1,4.5,1.9V164.9z"/>
		</g>
	</g>
</g>
<path class="st2" d="M22.3,3.4c2.4-0.4,5.5-0.7,9.5-0.7c4.9,0,8.4,1.1,10.7,3.2c2.1,1.8,3.3,4.6,3.3,8c0,3.5-1,6.2-2.9,8.2
	c-2.6,2.8-6.9,4.2-11.7,4.2c-1.5,0-2.8-0.1-4-0.3v15.3h-4.9V3.4z M27.2,21.8c1.1,0.3,2.4,0.4,4.1,0.4c5.9,0,9.6-2.9,9.6-8.2
	c0-5-3.6-7.5-9-7.5c-2.2,0-3.8,0.2-4.6,0.4V21.8z"/>
<path class="st2" d="M75.6,27.2c0,10.1-7,14.6-13.7,14.6c-7.4,0-13.1-5.4-13.1-14.1c0-9.2,6-14.6,13.6-14.6
	C70.3,13.1,75.6,18.8,75.6,27.2z M53.9,27.5c0,6,3.5,10.5,8.3,10.5c4.8,0,8.3-4.5,8.3-10.6c0-4.6-2.3-10.5-8.2-10.5
	S53.9,22.2,53.9,27.5z"/>
<path class="st2" d="M83.5,13.7l3.6,13.9c0.8,3.1,1.5,5.9,2,8.7h0.2c0.6-2.8,1.5-5.7,2.4-8.7l4.5-14h4.2l4.2,13.7
	c1,3.3,1.8,6.2,2.4,8.9h0.2c0.5-2.8,1.2-5.7,2.1-8.9l3.9-13.8h4.9l-8.8,27.4h-4.5L100.7,28c-1-3.1-1.8-5.8-2.4-9h-0.1
	c-0.7,3.3-1.5,6.1-2.5,9.1l-4.4,13h-4.5l-8.3-27.4H83.5z"/>
<path class="st2" d="M125.4,28.3c0.1,6.7,4.4,9.5,9.4,9.5c3.6,0,5.7-0.6,7.6-1.4l0.8,3.6c-1.8,0.8-4.8,1.7-9.1,1.7
	c-8.4,0-13.5-5.6-13.5-13.8s4.9-14.8,12.9-14.8c8.9,0,11.3,7.9,11.3,12.9c0,1-0.1,1.8-0.2,2.3H125.4z M140,24.7
	c0.1-3.2-1.3-8.1-6.9-8.1c-5,0-7.3,4.6-7.6,8.1H140z"/>
<path class="st2" d="M151,22.2c0-3.2-0.1-6-0.2-8.6h4.4l0.2,5.4h0.2c1.2-3.7,4.2-6,7.6-6c0.6,0,1,0.1,1.4,0.2v4.7
	c-0.5-0.1-1-0.2-1.7-0.2c-3.5,0-6,2.7-6.7,6.4c-0.1,0.7-0.2,1.5-0.2,2.3v14.6H151V22.2z"/>
<path class="st2" d="M171.7,28.3c0.1,6.7,4.4,9.5,9.4,9.5c3.6,0,5.7-0.6,7.6-1.4l0.8,3.6c-1.8,0.8-4.8,1.7-9.1,1.7
	c-8.4,0-13.5-5.6-13.5-13.8s4.9-14.8,12.9-14.8c8.9,0,11.3,7.9,11.3,12.9c0,1-0.1,1.8-0.2,2.3H171.7z M186.4,24.7
	c0.1-3.2-1.3-8.1-6.9-8.1c-5,0-7.3,4.6-7.6,8.1H186.4z"/>
<path class="st2" d="M221,0.9V34c0,2.4,0.1,5.2,0.2,7.1h-4.5l-0.2-4.8h-0.1c-1.5,3.1-4.9,5.4-9.3,5.4c-6.6,0-11.7-5.6-11.7-13.9
	c-0.1-9.1,5.6-14.7,12.3-14.7c4.2,0,7,2,8.3,4.2h0.1V0.9H221z M216,24.8c0-0.6-0.1-1.5-0.2-2.1c-0.7-3.2-3.5-5.8-7.2-5.8
	c-5.2,0-8.2,4.5-8.2,10.6c0,5.6,2.7,10.1,8.1,10.1c3.3,0,6.4-2.2,7.3-5.9c0.2-0.7,0.2-1.4,0.2-2.2V24.8z"/>
<path class="st2" d="M241.5,3.4c2.2-0.5,5.6-0.8,9-0.8c4.9,0,8.1,0.8,10.5,2.8c2,1.5,3.2,3.7,3.2,6.7c0,3.7-2.4,6.9-6.5,8.4v0.1
	c3.6,0.9,7.9,3.9,7.9,9.6c0,3.3-1.3,5.8-3.2,7.6c-2.7,2.4-7,3.6-13.2,3.6c-3.4,0-6-0.2-7.6-0.5V3.4z M246.4,19.1h4.5
	c5.2,0,8.3-2.7,8.3-6.4c0-4.5-3.4-6.2-8.4-6.2c-2.3,0-3.6,0.2-4.4,0.3V19.1z M246.4,37.4c1,0.2,2.4,0.2,4.1,0.2
	c5.1,0,9.8-1.9,9.8-7.4c0-5.2-4.5-7.4-9.9-7.4h-4.1V37.4z"/>
<path class="st2" d="M274,13.7l6,16.2c0.6,1.8,1.3,4,1.8,5.6h0.1c0.5-1.6,1.1-3.7,1.8-5.7l5.4-16.1h5.3l-7.5,19.5
	c-3.6,9.4-6,14.2-9.4,17.2c-2.4,2.2-4.9,3-6.1,3.2l-1.2-4.2c1.2-0.4,2.9-1.2,4.4-2.4c1.4-1.1,3.1-3,4.2-5.6c0.2-0.5,0.4-0.9,0.4-1.2
	s-0.1-0.7-0.3-1.3l-10.1-25.3H274z"/>
</svg>
